<?xml version="1.0" encoding="utf-8"?>
<!-- Generator: Adobe Illustrator 25.4.1, SVG Export Plug-In . SVG Version: 6.00 Build 0)  -->
<svg version="1.1" id="Layer_1" xmlns="http://www.w3.org/2000/svg" xmlns:xlink="http://www.w3.org/1999/xlink" x="0px" y="0px"
	 viewBox="0 0 1366 768" style="enable-background:new 0 0 1366 768;" xml:space="preserve">
<g>
	<g>
		<path d="M569,302.5c1.93,0,1.93-3,0-3C567.07,299.5,567.07,302.5,569,302.5L569,302.5z"/>
	</g>
</g>
<g>
	<g>
		<path d="M664,299.5c1.93,0,1.93-3,0-3C662.07,296.5,662.07,299.5,664,299.5L664,299.5z"/>
	</g>
</g>
<g>
	<g>
		<path d="M518.49,341.39c1.8,10.99,4.68,21.79,8.61,32.2c3.43,9.09,7.7,18.14,14.55,25.18c13.76,14.15,34.85,15.73,53.44,16.24
			c22.7,0.63,45.61-0.68,68.02-4.4c10.26-1.7,20.44-4.07,30.21-7.66c9.89-3.64,19.15-8.56,27.6-14.86c4.29-3.2,8.4-6.64,12.43-10.16
			c3.86-3.37,7.76-6.73,11.37-10.38c6.3-6.36,12.44-14.16,13.24-23.41c0.19-2.2-0.01-4.41-0.48-6.57c-0.41-1.89-3.3-1.09-2.89,0.8
			c1.96,8.99-3.18,17.32-8.92,23.8c-3.07,3.47-6.48,6.6-9.94,9.68c-3.91,3.47-7.83,6.93-11.89,10.22
			c-8.02,6.48-16.69,11.96-26.21,15.98c-9.24,3.9-18.97,6.56-28.8,8.49c-21.35,4.2-43.38,5.71-65.11,5.61
			c-9.98-0.04-20.1-0.21-29.98-1.78c-8.9-1.42-17.77-4.1-25.12-9.47c-7.63-5.58-12.62-13.89-16.34-22.42
			c-4.19-9.61-7.26-19.78-9.43-30.03c-0.55-2.61-1.04-5.23-1.47-7.86C521.07,338.69,518.18,339.5,518.49,341.39L518.49,341.39z"/>
	</g>
</g>
<g>
	<g>
		<path d="M548.24,285.3c2.74-8.22,9.72-14.66,17.86-17.4c4.1-1.38,8.56-1.9,12.85-1.16c5,0.86,9.61,3.07,13.77,5.93
			c4.83,3.31,9.04,7.44,13.07,11.65c1.34,1.4,3.46-0.73,2.12-2.12c-7.57-7.9-16.33-15.99-27.42-18.21
			c-9.37-1.88-19.17,1.2-26.33,7.4c-4.05,3.51-7.12,8.03-8.81,13.11C544.74,286.34,547.63,287.13,548.24,285.3L548.24,285.3z"/>
	</g>
</g>
<g>
	<g>
		<path d="M650.08,282.64c6.68-9.39,17.89-14.18,28.49-17.65c5.81-1.9,11.98-3.44,18.03-1.78c4.81,1.32,9.05,4.28,12.22,8.1
			c3.62,4.36,5.66,9.94,5.38,15.61c-0.09,1.93,2.91,1.92,3,0c0.55-11.26-7.16-21.83-17.5-25.84c-6.11-2.37-12.59-1.72-18.77,0.04
			c-6.12,1.75-12.22,4.02-17.86,6.97c-6.08,3.18-11.58,7.41-15.58,13.03C646.37,282.7,648.97,284.2,650.08,282.64L650.08,282.64z"/>
	</g>
</g>
<g>
	<g>
		<path d="M621.78,313.79c-8.69,7.56-17.38,15.13-26.07,22.69c-1.01,0.88-0.17,2.54,1.06,2.56c11.7,0.15,23.39-1.32,34.68-4.36
			c1.86-0.5,1.07-3.4-0.8-2.89c-11.05,2.98-22.44,4.4-33.88,4.25c0.35,0.85,0.71,1.71,1.06,2.56c8.69-7.56,17.38-15.13,26.07-22.69
			C625.36,314.64,623.23,312.52,621.78,313.79L621.78,313.79z"/>
	</g>
</g>
<g>
	<g>
		<path d="M492.48,289.07c0.51-4.11,2.89-7.73,5.14-11.1c2.11-3.16,4.39-6.2,6.83-9.11c4.77-5.68,10.09-10.88,15.77-15.64
			c11.79-9.89,25.07-17.85,38.74-24.86c15.43-7.91,31.4-14.68,47.03-22.17c7.71-3.69,15.3-7.6,22.76-11.78
			c6.88-3.85,13.69-7.82,20.68-11.46c7.14-3.72,14.47-7.1,22.16-9.52c8.07-2.55,16.38-3.87,24.84-3.99
			c8.9-0.13,17.78,0.9,26.55,2.37c4.43,0.74,8.83,1.6,13.23,2.48c4.03,0.81,8.1,1.53,12.04,2.68c3.81,1.11,7.44,2.72,10.53,5.24
			c3,2.46,5.5,5.48,7.81,8.58c4.88,6.57,9.27,13.51,13.16,20.7c8,14.76,13.58,30.52,17.38,46.84c4.04,17.38,6.79,35.07,9.94,52.62
			c3.24,18.02,6.47,36.04,9.71,54.06c0.79,4.42,1.59,8.85,2.38,13.27c0.34,1.9,3.23,1.09,2.89-0.8c-3.33-18.56-6.67-37.12-10-55.68
			c-3.25-18.12-6.26-36.3-9.89-54.35c-3.43-17.04-8.2-33.67-15.7-49.39c-3.58-7.49-7.68-14.73-12.27-21.64
			c-4.34-6.54-9-13.59-15.59-18.08c-6.77-4.6-15.32-5.72-23.16-7.27c-8.82-1.75-17.68-3.35-26.65-4.15
			c-8.98-0.8-18.06-0.72-26.96,0.86c-7.89,1.4-15.5,4.02-22.83,7.22c-15.19,6.64-29.13,15.76-43.86,23.31
			c-15.8,8.1-32.17,15-48.16,22.71c-27.95,13.47-56.12,30.41-73.12,57.23c-2.13,3.36-3.88,6.82-4.37,10.81
			C489.24,290.98,492.25,290.96,492.48,289.07L492.48,289.07z"/>
	</g>
</g>
<g>
	<g>
		<path d="M633.72,184.98c-1.13-8.97-3.13-17.8-6.08-26.34c-2.52-7.3-5.69-14.45-10-20.88c-4.16-6.22-9.4-11.79-15.81-15.72
			c-5.84-3.58-12.75-5.49-19.6-5.49c-7.63,0-15.21,2.55-20.73,7.93c-1.39,1.35,0.74,3.47,2.12,2.12c9.31-9.05,24.46-8.74,35.32-2.77
			c12.51,6.88,20.15,20.17,24.94,33.16c3.33,9.03,5.64,18.44,6.84,27.99C630.95,186.87,633.96,186.89,633.72,184.98L633.72,184.98z"
			/>
	</g>
</g>
<g>
	<g>
		<path d="M633.83,184.97c-0.77-19.05-1.5-38.46,2.49-57.23c1.9-8.96,4.8-18.17,9.65-26.01c2.43-3.92,5.67-6.75,10.46-6.94
			c4.67-0.19,9.52,0.79,14.04,1.9c10.17,2.51,19.8,7.18,28.02,13.68c1.5,1.18,3.64-0.92,2.12-2.12c-7.7-6.08-16.47-10.69-25.87-13.5
			c-4.67-1.39-9.47-2.33-14.32-2.8c-4.9-0.47-9.64,0.14-13.36,3.62c-3.35,3.12-5.42,7.52-7.27,11.64
			c-2.04,4.56-3.71,9.28-5.01,14.11c-2.59,9.61-3.78,19.56-4.26,29.48c-0.55,11.39-0.15,22.8,0.31,34.19
			C630.91,186.89,633.91,186.9,633.83,184.97L633.83,184.97z"/>
	</g>
</g>
<g>
	<g>
		<path d="M631.42,163.99c0.8-20.71,0.22-41.62-4.07-61.96c-1.84-8.7-4.16-17.62-8.77-25.32c-4.66-7.79-11.7-13.2-20.35-15.92
			c-10.57-3.32-22.25-3.01-32.74,0.39c-1.83,0.59-1.05,3.49,0.8,2.89c9.1-2.95,18.95-3.46,28.26-1.2c4.37,1.06,8.59,2.75,12.31,5.31
			c3.39,2.33,6.19,5.42,8.41,8.87c4.59,7.12,6.89,15.47,8.73,23.66c2.18,9.73,3.48,19.63,4.14,29.57
			c0.75,11.22,0.72,22.47,0.28,33.7C628.35,165.92,631.35,165.92,631.42,163.99L631.42,163.99z"/>
	</g>
</g>
<g>
	<g>
		<path d="M495.16,289.03c-15.22,6.23-26.69,20.35-29.79,36.51c-3.7,19.3,6.5,36.54,11.79,54.44c3.02,10.21,3.5,20.76,4.81,31.26
			c1.06,8.5,2.76,16.94,5.44,25.08c5.28,15.99,14.55,30.85,29.12,39.86c15.21,9.4,33.55,11.22,51.04,11.39
			c9.17,0.09,18.33-0.27,27.5-0.36c10.55-0.11,21.09,0.66,31.64,0.41c10.51-0.25,20.63-2.15,30.55-5.64
			c10.03-3.53,19.71-8.07,29.39-12.44c19.9-8.99,39.61-18.38,59.13-28.15c18.49-9.26,37.18-18.49,54.89-29.21
			c8.18-4.95,16.1-10.39,23.32-16.67c3.63-3.15,7.07-6.52,10.25-10.13c2.51-2.85,5.87-6.83,4.17-10.91
			c-1.17-2.82-4.86-4.84-7.58-2.81c-1.53,1.14-0.04,3.75,1.51,2.59c1.67-1.24,3.51,0.82,3.5,2.5c-0.01,2.33-1.88,4.38-3.31,6.04
			c-2.95,3.39-6.14,6.57-9.49,9.56c-6.87,6.13-14.44,11.42-22.27,16.24c-16.53,10.18-34.05,18.86-51.36,27.61
			c-18.41,9.31-37.01,18.26-55.76,26.87c-9.44,4.33-18.89,8.71-28.49,12.67c-9.34,3.86-19.03,7.16-29.13,8.28
			c-10.28,1.14-20.63,0.44-30.94,0.22c-8.77-0.18-17.55,0.11-26.32,0.26c-16.83,0.29-34.32,0.26-50.28-5.78
			c-15.87-6.01-27.45-18.31-34.43-33.56c-3.41-7.45-5.75-15.38-7.37-23.4c-1.84-9.08-2.38-18.29-3.57-27.46
			c-1.23-9.53-3.95-18.44-7.32-27.41c-3.3-8.79-6.9-17.7-7.97-27.1c-1.83-16.07,5.33-32.36,18.19-42.15
			c3.04-2.32,6.39-4.26,9.93-5.7C497.72,291.2,496.94,288.3,495.16,289.03L495.16,289.03z"/>
	</g>
</g>
<g>
	<g>
		<path d="M804.92,342.59c15.81-9.14,32.87-16.02,50.6-20.41c17.03-4.23,35.13-6.72,52.68-5.03c8.27,0.8,16.57,2.7,24.09,6.31
			c6.98,3.35,13.1,8.13,18.16,13.98c9.92,11.48,15.4,26.16,19.52,40.55c2.12,7.39,4.1,14.89,5.59,22.43
			c1.46,7.38,2.42,15.68-0.63,22.8c-0.72,1.69-1.69,3.29-2.86,4.71c-1.21,1.48,0.9,3.62,2.12,2.12c5.2-6.34,6.22-14.52,5.46-22.46
			c-0.77-8.01-2.91-15.88-4.94-23.65c-3.94-15.1-8.86-30.51-18.01-43.36c-4.46-6.26-9.89-11.77-16.31-16.01
			c-7.22-4.76-15.53-7.72-24.01-9.3c-17.69-3.29-36.29-1.36-53.79,2.22c-18.49,3.79-36.45,10.26-53.11,19.12
			c-2.04,1.09-4.07,2.21-6.07,3.37C801.74,340.97,803.24,343.56,804.92,342.59L804.92,342.59z"/>
	</g>
</g>
<g>
	<g>
		<path d="M494.45,292.32c-28.38-7-57.65-10.42-86.88-10.17c-14.47,0.13-28.93,1.16-43.27,3.09c-12.62,1.69-26.35,3.23-35.4,13.2
			c-8.48,9.34-11.59,22.26-14.22,34.25c-0.41,1.88,2.48,2.69,2.89,0.8c2.31-10.55,4.9-21.69,11.46-30.52
			c3.3-4.44,7.71-7.91,12.84-9.99c6.19-2.5,12.96-3.39,19.52-4.33c28.11-4.06,56.75-4.58,85-1.67c15.92,1.64,31.72,4.41,47.27,8.24
			C495.52,295.68,496.32,292.79,494.45,292.32L494.45,292.32z"/>
	</g>
</g>
<g>
	<g>
		<path d="M492.73,435.01c-16.92,12.62-31.61,28.04-43.55,45.45c-11.85,17.28-20.94,36.48-26.76,56.61
			c-3.29,11.38-5.49,23.07-6.6,34.87c-0.18,1.92,2.82,1.91,3,0c1.93-20.53,7.37-40.73,15.84-59.53
			c8.47-18.81,19.91-36.3,33.87-51.51c7.83-8.54,16.44-16.37,25.72-23.3C495.77,436.46,494.28,433.86,492.73,435.01L492.73,435.01z"
			/>
	</g>
</g>
<g>
	<g>
		<path d="M726.73,443.26c-8.72,16.23-17.09,32.7-23.63,49.95c-6.43,16.98-10.98,34.79-11.86,52.98c-0.43,8.8,0.22,18.41,6.32,25.32
			c1.28,1.45,3.39-0.68,2.12-2.12c-5.18-5.88-5.76-14.26-5.5-21.74c0.31-8.8,1.55-17.55,3.46-26.14
			c3.85-17.3,10.38-33.88,17.96-49.86c4.31-9.09,8.97-18.02,13.73-26.88C730.24,443.08,727.65,441.56,726.73,443.26L726.73,443.26z"
			/>
	</g>
</g>
<g>
	<g>
		<path d="M618,332.5c1.93,0,1.93-3,0-3C616.07,329.5,616.07,332.5,618,332.5L618,332.5z"/>
	</g>
</g>
<g>
	<g>
		<path d="M611,336.5c1.93,0,1.93-3,0-3C609.07,333.5,609.07,336.5,611,336.5L611,336.5z"/>
	</g>
</g>
</svg>
